<?xml version="1.0" encoding="UTF-8"?>
<svg xmlns="http://www.w3.org/2000/svg" width="197.2" height="353.8" version="1.1" viewBox="0 0 197.2 353.8">
  <defs>
    <style>
      .cls-1 {
        fill: #177038;
      }

      .cls-2 {
        fill: #379248;
      }

      .cls-3 {
        fill: #fff;
      }

      .cls-4 {
        fill: #f3c108;
      }

      .cls-5 {
        fill: #231f20;
      }

      .cls-6 {
        fill: #ffd400;
      }

      .cls-7 {
        fill: #004a27;
      }

      .cls-8 {
        fill: #166536;
      }

      .cls-9 {
        fill: #414042;
      }

      .cls-10 {
        fill: #30833f;
      }
    </style>
  </defs>
  <!-- Generator: Adobe Illustrator 28.7.1, SVG Export Plug-In . SVG Version: 1.2.0 Build 142)  -->
  <g>
    <g id="Layer_1">
      <g id="Layer_1-2" data-name="Layer_1">
        <g>
          <g>
            <path class="cls-9" d="M22.8,337.3h0c.8,0,1.4-.6,1.4-1.4v-48.7c0-.8-.6-1.4-1.4-1.4h0c-5.6,0-8.2,3.8-10.1,10.1,0,0-1.3,4.9-1.3,15.9s1.3,15.4,1.3,15.4c1.7,4.6,4.5,10.1,10.1,10.1Z"/>
            <path class="cls-5" d="M29,277.5h-7.7c-1.3,0-2.5.9-2.8,2.3-.9,4.4-2.8,15.4-2.8,32.9s1.8,26.3,2.8,30.6c.3,1.3,1.4,2.2,2.8,2.2h10.8l-3-67.9h0Z"/>
            <path class="cls-9" d="M174.5,337.3h0c-.8,0-1.4-.6-1.4-1.4v-48.7c0-.8.6-1.4,1.4-1.4h0c5.6,0,8.2,3.8,10.1,10.1,0,0,1.3,4.9,1.3,15.9s-1.3,15.4-1.3,15.4c-1.7,4.6-4.5,10.1-10.1,10.1Z"/>
            <path class="cls-5" d="M168.3,277.5h7.7c1.3,0,2.5.9,2.8,2.3.9,4.4,2.8,15.4,2.8,32.9s-1.8,26.3-2.8,30.6c-.3,1.3-1.4,2.2-2.8,2.2h-10.8l3-67.9h.1Z"/>
            <path class="cls-10" d="M161.9,353.8H35.3c-4.1,0-7.4-3.2-7.6-7.3L15.5,47.1c-.2-4.3,3.3-7.9,7.6-7.9h151.1c4.3,0,7.7,3.6,7.6,7.9l-12.3,299.4c-.2,4.1-3.5,7.3-7.6,7.3h0Z"/>
            <path class="cls-4" d="M23.8,9.6v-4.8c0-1.2.9-2.1,2.1-2.1h7.8c1.2,0,2.1.9,2.1,2.1v4.8"/>
            <g>
              <polygon class="cls-8" points="182 41.1 14.8 41.1 16.3 60.2 181.2 60.2 182 41.1"/>
              <polygon class="cls-7" points="151.2 41.1 151.2 60.2 167.3 41.1 151.2 41.1"/>
              <polygon class="cls-7" points="49.2 41.1 49.2 60.2 65.3 41.1 49.2 41.1"/>
            </g>
            <polygon class="cls-1" points="193.1 39.3 174.4 39.3 174.4 68.4 180.8 68.4 181.4 55.4 193.1 39.3"/>
            <rect class="cls-10" x="148.1" y="38.4" width="3.1" height="21.8"/>
            <polygon class="cls-7" points="100.2 41.1 100.2 60.2 116.3 41.1 100.2 41.1"/>
            <rect class="cls-10" x="97.1" y="38.4" width="3.1" height="21.8"/>
            <rect class="cls-10" x="46.1" y="38.4" width="3.1" height="21.8"/>
            <path class="cls-4" d="M137,0H60.2c-2.2,0-4.2,1.2-5.2,3.2l-3.2,6.4h93.6l-3.2-6.4C141.2,1.2,139.2,0,137,0Z"/>
            <path class="cls-4" d="M173.4,9.6v-4.8c0-1.2-.9-2.1-2.1-2.1h-7.8c-1.2,0-2.1.9-2.1,2.1v4.8"/>
            <polygon class="cls-1" points="4.1 39.3 22.8 39.3 22.8 68.4 16.4 68.4 15.8 55.4 4.1 39.3"/>
            <path class="cls-2" d="M4.5,24.4h188.3c2.5,0,4.5,2,4.5,4.5v13.2H0v-13.2c0-2.5,2-4.5,4.5-4.5Z"/>
            <path class="cls-6" d="M11.9,9.6h173.4c3.5,0,6.3,2.8,6.3,6.3v8.5H5.6v-8.5c0-3.5,2.8-6.3,6.3-6.3Z"/>
            <g id="AC_Pohutukawa_tile_mono">
              <g>
                <path class="cls-3" d="M117.4,96.2c-.5-1.4-2.1-2.1-3.6-1.6-1.1.4-1.8,1.4-1.8,2.5h0c0,.4-.3.8-.6.9h0l-10.1,3.9h-.3s0-.2,0-.3h0l7.8-7.5h0c.3-.4.7-.4,1.1-.3h0c1,.5,2.2.3,3-.5s1.1-2.8,0-3.9-2.8-1.1-3.9,0-1,2-.6,3h0c0,.4,0,.8-.2,1.1h0l-7.8,7.6h0c0,0-.2.2-.3,0v-.3h0l4.2-9.9h0c.2-.5.5-.7.9-.7h0c1.1,0,2.1-.6,2.6-1.7.6-1.4,0-3-1.5-3.6-1.4-.6-3,0-3.6,1.5-.5,1.1-.2,2.3.6,3h0c.3.3.4.7.2,1.1h0c0,0-4.2,10.1-4.2,10.1h0c0,0-.2.2-.3.2,0,0-.2,0-.2-.3h0v-10.8h0c0-.5.3-.9.6-1.1h0c1-.4,1.7-1.4,1.7-2.6s-1.2-2.8-2.8-2.8-2.8,1.2-2.8,2.8.7,2.2,1.7,2.6h0c.4,0,.6.5.6.9h0v10.9h0c0,.2,0,.3-.2.3,0,0-.2,0-.3-.2h0l-4.2-9.9h0c-.2-.5,0-.9.2-1.2h0c.8-.8,1.1-2,.6-3-.6-1.4-2.2-2.1-3.6-1.5s-2.1,2.2-1.5,3.6c.5,1.1,1.5,1.7,2.6,1.7h0c.4,0,.8.2.9.6h0c0,0,4.2,10,4.2,10h0v.3s-.2,0-.3,0h0l-7.8-7.5h0c-.3-.4-.4-.8-.2-1.2h0c.4-1,.2-2.2-.6-3-1.1-1.1-2.8-1-3.9,0-1.1,1.1-1,2.8,0,3.9.8.8,2,1,3,.5h0c.4-.2.8,0,1.1.2h0l7.8,7.6h0c0,0,.2.2,0,.3h-.3l-10.1-3.9h0c-.4-.2-.6-.6-.6-1h0c0-1.1-.7-2.1-1.8-2.5-1.4-.5-3,.2-3.6,1.6-.5,1.4.2,3,1.6,3.6,1.1.4,2.3,0,3-.7h0c.3-.3.7-.4,1.1-.2h0l10.1,3.9h0c0,0,.3,0,.2.3h0v.4c0,1.2.7,2.2,1.7,2.6h0c.4,0,.6.5.6.9h0v11.5h.8v-11.4h0c0-.5.3-.9.6-1.1h0c1-.4,1.7-1.4,1.7-2.6s0-.2,0-.4h0c0-.2,0-.3.2-.3h0l10.1-3.9h0c.4-.2.8,0,1.1.2h0c.7.8,1.9,1.1,3,.7,1.4-.5,2.1-2.1,1.6-3.6"/>
                <path class="cls-3" d="M98.6,122.7c-2.6,0-5.3-1.2-7.3-2.9-2.4,2-4.6,2.7-7.3,2.7s-3-.3-4.4-.9v-2.1c1.4.7,3,1.1,4.4,1.1,2.5,0,5.9-1.3,7.3-3.7,1.4,2.4,4.8,3.7,7.3,3.7s5.9-1.3,7.3-3.7c1.4,2.4,4.8,3.7,7.3,3.7s3-.4,4.4-1.1v2.1c-1.4.6-2.9.9-4.4.9-2.7,0-4.9-.8-7.3-2.7-2,1.7-4.7,2.9-7.3,2.9"/>
                <path class="cls-3" d="M98.6,124c-2.7,0-5.3-1-7.3-2.7-2.1,1.7-4.6,2.7-7.3,2.7s-3-.3-4.4-.9v2c1.4.6,2.9.9,4.4.9,2.7,0,5.1-.9,7.3-2.6,2,1.8,4.9,2.6,7.3,2.6s5.3-.8,7.3-2.6c2.2,1.7,4.6,2.6,7.3,2.6s3-.3,4.4-.9v-2c-1.4.6-2.9.9-4.4.9-2.7,0-5.3-1-7.3-2.7-2,1.7-4.6,2.7-7.3,2.7"/>
                <path class="cls-3" d="M98.6,129c-2.7,0-5.4-.8-7.3-2.2-2.2,1.6-4.6,2.2-7.3,2.2s-3-.2-4.4-.7v-2c1.4.6,2.9,1,4.4,1,2.7,0,5.3-.9,7.3-2.6,2,1.7,4.6,2.4,7.3,2.4s5.3-.8,7.3-2.4c2.1,1.7,4.6,2.6,7.3,2.6s3-.4,4.4-1v2c-1.4.5-2.9.7-4.4.7-2.7,0-5.1-.7-7.3-2.2-1.9,1.5-4.6,2.2-7.3,2.2h0Z"/>
                <path class="cls-3" d="M112.9,102.3c-2.6,0-5.3.5-7.8,2.1-2.5,1.5-4.3,3.7-5.3,5.9,2.4-1.2,10.3-5,17.4-6.1-.7-1-2.2-1.8-4.3-1.9"/>
                <path class="cls-3" d="M117.5,104.8c-7.4,1.1-15.8,5.3-17.8,6.2,2,.7,4.6.9,7.3.7,3.8-.3,7-1.5,9-3.2,1.5-1.2,1.8-2.4,1.6-3.3,0-.2,0-.3,0-.5"/>
                <path class="cls-3" d="M84.3,102.3c2.6,0,5.3.5,7.8,2.1,2.5,1.5,4.3,3.7,5.3,5.9-2.4-1.2-10.3-5-17.4-6.1.7-1,2.2-1.8,4.3-1.9"/>
                <path class="cls-3" d="M79.7,104.8c7.4,1.1,15.8,5.3,17.8,6.2-2,.7-4.6.9-7.3.7-3.8-.3-7-1.5-9-3.2-1.5-1.2-1.8-2.4-1.6-3.3,0-.2,0-.3,0-.5"/>
              </g>
            </g>
          </g>
          <g>
            <path class="cls-3" d="M59.3,164.9c-.4-.4-.5-.8-.7-1.5l-.4-1.9c-.3-1.1-.8-1.5-2-1.5h-2.1v4.9h-3.5v-14h6.4c3.4,0,5.2,1.4,5.2,4.2s-1.3,3.3-3,3.5h0c1.3.3,2,.9,2.3,2.3l.6,2.4c.2.7.4,1.2.9,1.7h-3.8,0ZM56.7,153.8h-2.5v3.5h2.6c1.3,0,1.9-.6,1.9-1.8s-.7-1.7-1.9-1.7h0Z"/>
            <path class="cls-3" d="M71.4,161.3l2.8,1c-.6,1.9-2.3,3-4.6,3s-2.9-.5-3.8-1.4c-.9-1-1.4-2.3-1.4-4s.5-3.1,1.4-4.1,2.2-1.5,3.9-1.5c2.9,0,4.6,1.9,4.6,4.8s0,1.1-.2,1.4h-6.4c0,1.5.8,2.4,2,2.4s1.5-.5,1.7-1.4v-.2ZM67.7,158.6h3.4v-.5c0-.9-.6-1.6-1.5-1.6s-1.8.8-1.9,2.1Z"/>
            <path class="cls-3" d="M77.6,163.7c-.9-1-1.4-2.4-1.4-4.1s.5-3.1,1.4-4.1,2.2-1.5,3.8-1.5c2.6,0,4.3,1.4,4.5,3.6l-3,.7c0-1.1-.6-1.7-1.5-1.7s-1.8,1.1-1.8,3,.7,3,1.8,3,1.4-.6,1.5-1.7l3,.9c-.4,2.1-2.1,3.3-4.5,3.3s-2.9-.5-3.9-1.5h0Z"/>
            <path class="cls-3" d="M92.7,161.5h0l2.2-7.2h3.3l-3.8,10.9c-1,2.9-2.4,4.1-4.7,4.1s-1.7-.3-2.4-.6l.7-2.5c.4.3.8.5,1.3.5.8,0,1.1-.4,1.5-1.5l-3.8-10.9h3.6s2.1,7.2,2.1,7.2Z"/>
            <path class="cls-3" d="M100.5,163.7c-.9-1-1.4-2.4-1.4-4.1s.5-3.1,1.4-4.1,2.2-1.5,3.8-1.5c2.6,0,4.3,1.4,4.5,3.6l-3,.7c0-1.1-.6-1.7-1.5-1.7s-1.8,1.1-1.8,3,.7,3,1.8,3,1.4-.6,1.5-1.7l3,.9c-.4,2.1-2.1,3.3-4.5,3.3s-2.9-.5-3.9-1.5h0Z"/>
            <path class="cls-3" d="M115.8,162.2l.2,2.5c-.5.3-1.4.5-2.2.5-1.8,0-2.9-1-2.9-2.9v-12.5h3.5v11.8c0,.6.2.9.7.9s.5,0,.8-.3h0Z"/>
            <path class="cls-3" d="M121.8,151.3c0,1.1-.9,1.8-2,1.8s-2-.8-2-1.8.9-1.9,2-1.9,2,.8,2,1.9ZM118,164.9v-10.6h3.5v10.6h-3.5Z"/>
            <path class="cls-3" d="M124.4,154.3h3l.4,2c.5-1.4,1.8-2.3,3.4-2.3s3.3,1.3,3.3,3.4v7.4h-3.5v-6.3c0-1.2-.5-1.7-1.4-1.7s-1.8.8-1.8,2.2v5.8h-3.5v-10.6h0Z"/>
            <path class="cls-3" d="M145.9,168.3c-1.1.7-2.6,1-4.6,1-3.2,0-5.1-1-5.1-2.6s.9-1.8,2.3-2c-.9-.3-1.5-1-1.5-2s.8-1.8,1.9-2.1c-1.3-.6-2-1.6-2-3,0-2.2,1.8-3.6,4.8-3.6s2.1.2,2.9.6c.3-.3.5-.9.6-1.7l2.8.9c-.1,1-.9,1.7-2,2,.4.5.6,1.1.6,1.8,0,2.2-1.9,3.5-4.8,3.5s-1.1,0-1.5-.1c-.3.2-.5.4-.5.7s.3.5.7.5h2.8c2.9,0,4.4,1.1,4.4,3.2s-.6,2.2-1.7,2.9h0ZM141.5,167.3c2,0,3.1-.4,3.1-1.3s-.5-.8-1.4-.8h-3c-.8,0-1.2.3-1.2.9s.9,1.2,2.5,1.2h0ZM140.3,157.6c0,1,.5,1.6,1.4,1.6s1.4-.6,1.4-1.6-.5-1.6-1.4-1.6-1.4.6-1.4,1.6Z"/>
          </g>
        </g>
      </g>
    </g>
  </g>
</svg>